<?xml version="1.0" standalone="no"?>
<!DOCTYPE svg PUBLIC "-//W3C//DTD SVG 20010904//EN"
 "http://www.w3.org/TR/2001/REC-SVG-20010904/DTD/svg10.dtd">
<svg version="1.0" xmlns="http://www.w3.org/2000/svg"
 width="281.000000pt" height="281.000000pt" viewBox="0 0 281.000000 281.000000"
 preserveAspectRatio="xMidYMid meet">
<metadata>
Created by potrace 1.14, written by Peter Selinger 2001-2017
</metadata>
<g transform="translate(0.000000,281.000000) scale(0.100000,-0.100000)"
fill="#000000" stroke="none">
<path d="M20 2004 c0 -6 74 -259 120 -414 11 -36 35 -117 53 -180 l33 -115 95
-3 95 -3 58 193 c32 106 61 196 65 200 4 4 33 -82 66 -192 l60 -200 92 0 c50
0 94 4 97 8 4 8 123 403 146 487 5 17 20 68 34 115 14 47 26 91 26 98 0 9 -27
12 -104 12 -91 0 -105 -2 -110 -17 -3 -10 -25 -107 -50 -216 -25 -110 -46
-201 -49 -203 -2 -2 -30 95 -62 216 l-58 220 -87 0 -87 0 -17 -72 c-26 -106
-94 -360 -99 -364 -4 -4 -15 40 -62 255 -20 90 -38 168 -41 173 -6 9 -214 11
-214 2z"/>
<path d="M1247 1973 c-8 -21 -61 -180 -117 -353 -57 -173 -105 -319 -107 -323
-3 -4 44 -6 103 -5 l108 3 20 66 20 65 117 1 118 1 23 -69 22 -69 103 0 c57 0
103 3 103 7 0 4 -53 166 -117 360 l-118 353 -131 0 -132 0 -15 -37z m181 -268
c16 -55 31 -106 33 -114 3 -11 -11 -15 -64 -16 -37 -1 -70 1 -72 5 -3 5 33
137 61 219 7 21 9 15 42 -94z"/>
<path d="M1831 1651 l0 -361 99 0 99 0 3 107 3 106 92 2 c119 3 190 34 243
109 33 47 35 54 35 135 0 121 -34 184 -130 234 -36 20 -59 22 -242 25 l-201 4
-1 -361z m330 188 c50 -26 58 -117 13 -156 -23 -21 -38 -25 -94 -25 -52 0 -50
-3 -50 96 0 67 4 96 13 99 19 6 98 -3 118 -14z"/>
<path d="M2484 1653 l1 -358 98 -3 97 -3 0 361 0 360 -99 0 -98 0 1 -357z"/>
<path d="M2205 1374 c-31 -29 -28 -67 7 -96 40 -35 100 -12 113 43 15 61 -71
99 -120 53z"/>
<path d="M2505 1214 c-77 -20 -110 -64 -107 -141 2 -56 63 -97 161 -110 25 -3
54 -10 64 -15 17 -9 24 -37 10 -39 -5 0 -19 -3 -33 -5 -15 -3 -35 3 -51 15
-19 14 -46 21 -91 23 -58 3 -63 1 -66 -19 -5 -31 51 -89 103 -106 92 -32 231
-2 270 57 38 58 25 125 -31 158 -31 18 -43 21 -126 34 -58 8 -81 30 -54 49 22
16 65 10 81 -12 9 -11 29 -17 69 -18 76 -2 83 4 60 51 -36 74 -146 106 -259
78z"/>
<path d="M2180 1000 c0 -217 0 -219 -22 -231 -13 -7 -25 -12 -28 -11 -11 4
-11 -91 0 -98 18 -11 91 0 130 18 64 31 70 57 70 315 l0 227 -75 0 -75 0 0
-220z"/>
<path d="M1973 924 c-20 -20 -24 -31 -19 -57 9 -43 43 -69 81 -62 62 11 84 77
40 120 -31 32 -69 32 -102 -1z"/>
</g>
</svg>
