<svg width="700" height="201" viewBox="0 0 700 201" fill="none" xmlns="http://www.w3.org/2000/svg">
<g clip-path="url(#clip0_331_72)">
<path d="M89.7139 103.453L68.9827 151H33.2664L0.479492 58.4982H42.7306L56.8144 108.524L77.3203 60.3009H102.333L122.501 108.524L136.697 58.4982H178.948L146.387 151H110.783L89.7139 103.453ZM237.617 151V137.142C236.866 138.569 235.176 140.634 232.547 143.338C229.918 145.967 226.425 148.371 222.069 150.549C217.787 152.652 212.755 153.704 206.971 153.704C197.807 153.704 189.883 151.451 183.198 146.944C176.513 142.437 171.33 136.466 167.649 129.029C164.044 121.593 162.241 113.519 162.241 104.805C162.241 96.0924 164.044 88.0177 167.649 80.5815C171.33 73.1453 176.513 67.1738 183.198 62.667C189.883 58.0851 197.807 55.7942 206.971 55.7942C212.454 55.7942 217.224 56.6204 221.28 58.2729C225.411 59.9254 228.792 61.8783 231.42 64.1317C234.125 66.3851 236.04 68.5258 237.167 70.5539V58.4982H276.826V151H237.617ZM201.338 104.805C201.338 108.11 202.126 111.152 203.704 113.932C205.281 116.636 207.422 118.776 210.126 120.354C212.83 121.931 215.91 122.72 219.365 122.72C222.82 122.72 225.862 121.931 228.491 120.354C231.195 118.776 233.298 116.636 234.801 113.932C236.378 111.152 237.167 108.11 237.167 104.805C237.167 101.5 236.378 98.496 234.801 95.7919C233.298 93.0127 231.195 90.8344 228.491 89.2571C225.862 87.6046 222.82 86.7783 219.365 86.7783C215.91 86.7783 212.83 87.6046 210.126 89.2571C207.422 90.8344 205.281 93.0127 203.704 95.7919C202.126 98.496 201.338 101.5 201.338 104.805ZM317.872 175.5H278.437V58.4982H318.21V70.5539C319.411 68.5258 321.44 66.3851 324.294 64.1317C327.223 61.8032 330.904 59.8503 335.335 58.2729C339.767 56.6204 344.725 55.7942 350.208 55.7942C359.372 55.7942 367.108 58.0851 373.418 62.667C379.802 67.1738 384.647 73.1453 387.952 80.5815C391.332 88.0177 393.022 96.0924 393.022 104.805C393.022 113.519 391.22 121.593 387.614 129.029C384.009 136.466 378.901 142.437 372.291 146.944C365.681 151.451 357.794 153.704 348.63 153.704C342.396 153.704 337.101 152.652 332.744 150.549C328.463 148.371 325.083 145.967 322.604 143.338C320.2 140.634 318.623 138.569 317.872 137.142V175.5ZM354.039 104.805C354.039 101.5 353.25 98.496 351.673 95.7919C350.17 93.0127 348.067 90.8344 345.363 89.2571C342.659 87.6046 339.617 86.7783 336.237 86.7783C332.707 86.7783 329.589 87.6046 326.885 89.2571C324.181 90.8344 322.04 93.0127 320.463 95.7919C318.961 98.496 318.21 101.5 318.21 104.805C318.21 108.11 318.961 111.152 320.463 113.932C322.04 116.636 324.181 118.776 326.885 120.354C329.589 121.931 332.707 122.72 336.237 122.72C339.617 122.72 342.659 121.931 345.363 120.354C348.067 118.776 350.17 116.636 351.673 113.932C353.25 111.152 354.039 108.11 354.039 104.805ZM391.704 151V58.4982H431.476V151H391.704ZM412.097 44.3018C406.013 44.3018 400.83 42.1611 396.549 37.8797C392.342 33.5982 390.239 28.4905 390.239 22.5566C390.239 16.6226 392.342 11.4774 396.549 7.12078C400.83 2.76421 406.013 0.585938 412.097 0.585938C416.078 0.585938 419.721 1.59996 423.026 3.62801C426.331 5.58096 428.997 8.20992 431.026 11.5149C433.054 14.8199 434.068 18.5005 434.068 22.5566C434.068 28.4905 431.889 33.5982 427.533 37.8797C423.251 42.1611 418.106 44.3018 412.097 44.3018Z" fill="#25D366"/>
<path d="M455.674 154.704C451.092 154.704 447.149 153.089 443.844 149.859C440.614 146.554 438.999 142.573 438.999 137.916C438.999 133.259 440.614 129.278 443.844 125.973C447.149 122.668 451.092 121.016 455.674 121.016C460.406 121.016 464.387 122.668 467.617 125.973C470.922 129.278 472.575 133.259 472.575 137.916C472.575 142.573 470.922 146.554 467.617 149.859C464.387 153.089 460.406 154.704 455.674 154.704ZM485.783 201.575C478.347 201.575 472.263 200.861 467.531 199.434C462.724 198.082 459.081 196.692 456.602 195.265L468.432 165.746C469.709 166.722 471.024 167.398 472.376 167.774C473.728 168.224 475.117 168.45 476.545 168.45C478.047 168.45 479.436 168.037 480.713 167.21C481.99 166.384 482.967 165.145 483.643 163.492C484.319 161.84 484.657 159.737 484.657 157.183V59.4981H524.542V162.704C524.542 169.914 523.19 176.449 520.486 182.308C517.782 188.167 513.575 192.824 507.867 196.279C502.158 199.81 494.797 201.575 485.783 201.575ZM504.825 45.3017C498.816 45.3017 493.67 43.161 489.389 38.8796C485.183 34.5981 483.079 29.4904 483.079 23.5565C483.079 19.5755 484.056 15.9325 486.009 12.6275C487.962 9.32253 490.591 6.65601 493.896 4.62795C497.201 2.5999 500.844 1.58587 504.825 1.58587C508.806 1.58587 512.449 2.5999 515.754 4.62795C519.134 6.5809 521.8 9.20986 523.753 12.5148C525.781 15.8198 526.795 19.5004 526.795 23.5565C526.795 29.4904 524.655 34.5981 520.373 38.8796C516.092 43.161 510.909 45.3017 504.825 45.3017ZM572.15 56.7941C578.61 56.7941 584.506 57.3198 589.839 58.3714C595.247 59.423 599.717 60.5873 603.247 61.8642C606.852 63.066 609.106 64.0049 610.007 64.6809L597.501 87.8909C596.149 86.9144 593.52 85.6375 589.614 84.0601C585.783 82.4076 581.539 81.5814 576.882 81.5814C573.803 81.5814 571.249 81.957 569.221 82.7081C567.268 83.3841 566.291 84.5859 566.291 86.3135C566.291 87.966 567.456 89.3556 569.784 90.4823C572.113 91.5339 575.643 92.4728 580.375 93.2991C584.656 94.1253 589.163 95.5149 593.895 97.4678C598.628 99.3457 602.609 102.238 605.838 106.143C609.143 109.974 610.796 115.119 610.796 121.579C610.796 128.49 609.294 134.123 606.289 138.48C603.285 142.761 599.341 146.104 594.459 148.507C589.651 150.836 584.431 152.451 578.798 153.352C573.239 154.253 567.906 154.704 562.799 154.704C555.287 154.704 548.79 154.028 543.307 152.676C537.823 151.399 533.429 149.934 530.124 148.282C526.894 146.629 524.679 145.352 523.477 144.451L535.758 118.65C537.711 120.227 540.865 122.03 545.222 124.058C549.654 126.086 554.236 127.1 558.968 127.1C563.174 127.1 566.329 126.649 568.432 125.748C570.61 124.771 571.699 123.457 571.699 121.805C571.699 120.528 571.174 119.476 570.122 118.65C569.07 117.824 567.531 117.072 565.503 116.396C563.475 115.72 560.921 115.082 557.841 114.481C555.062 113.955 551.982 113.091 548.602 111.89C545.222 110.613 541.992 108.847 538.913 106.594C535.908 104.341 533.392 101.486 531.364 98.0312C529.411 94.5009 528.434 90.2194 528.434 85.1868C528.434 78.7271 530.537 73.4316 534.744 69.3004C538.95 65.0941 544.358 61.9769 550.968 59.9488C557.653 57.8456 564.714 56.7941 572.15 56.7941Z" fill="white"/>
</g>
<defs>
<clipPath id="clip0_331_72">
<rect width="700" height="201" fill="white"/>
</clipPath>
</defs>
</svg>
