<svg width="422" height="252" viewBox="0 0 422 252" fill="none" xmlns="http://www.w3.org/2000/svg">
<g clip-path="url(#clip0_24_2)">
<path d="M34.3828 144L2.53125 36H35.2266L49.9922 102.445H50.8359L68.3438 36H94.0781L111.586 102.656H112.43L127.195 36H159.891L128.039 144H99.9844L81.6328 83.6719H80.7891L62.4375 144H34.3828ZM184.821 144H153.18L188.829 36H228.907L264.555 144H232.915L209.29 65.7422H208.446L184.821 144ZM178.915 101.391H238.399V123.328H178.915V101.391ZM274.957 144V36H321.574C329.59 36 336.604 37.582 342.615 40.7461C348.627 43.9102 353.303 48.3574 356.643 54.0879C359.982 59.8184 361.652 66.5156 361.652 74.1797C361.652 81.9141 359.93 88.6113 356.484 94.2715C353.074 99.9316 348.275 104.291 342.088 107.35C335.936 110.408 328.746 111.937 320.52 111.937H292.676V89.1562H314.613C318.059 89.1562 320.994 88.5586 323.42 87.3633C325.881 86.1328 327.762 84.3926 329.063 82.1426C330.398 79.8926 331.066 77.2383 331.066 74.1797C331.066 71.0859 330.398 68.4492 329.063 66.2695C327.762 64.0547 325.881 62.3672 323.42 61.207C320.994 60.0117 318.059 59.4141 314.613 59.4141H304.277V144H274.957ZM401.73 36V144H372.41V36H401.73Z" fill="#25D366"/>
<path d="M304.078 216.778C300.989 216.778 298.339 215.7 296.128 213.542C293.944 211.358 292.865 208.708 292.892 205.592C292.865 202.556 293.944 199.959 296.128 197.802C298.339 195.645 300.989 194.566 304.078 194.566C307.008 194.566 309.591 195.645 311.828 197.802C314.092 199.959 315.238 202.556 315.264 205.592C315.238 207.67 314.692 209.561 313.626 211.265C312.588 212.943 311.229 214.288 309.551 215.3C307.873 216.286 306.049 216.778 304.078 216.778ZM327.249 154.136H349.302V217.577C349.302 222.957 348.17 227.165 345.906 230.202C343.669 233.238 340.526 235.382 336.478 236.634C332.43 237.885 327.702 238.511 322.295 238.511C321.496 238.511 320.764 238.498 320.098 238.471C319.406 238.445 318.647 238.405 317.821 238.352V222.052C318.354 222.105 318.82 222.145 319.219 222.172C319.592 222.198 319.978 222.212 320.378 222.212C323.015 222.212 324.812 221.799 325.771 220.973C326.757 220.174 327.249 218.882 327.249 217.098V154.136ZM338.276 147.744C335.293 147.744 332.736 146.759 330.605 144.788C328.474 142.817 327.409 140.447 327.409 137.677C327.409 134.907 328.474 132.537 330.605 130.566C332.736 128.595 335.293 127.609 338.276 127.609C341.285 127.609 343.842 128.595 345.946 130.566C348.077 132.537 349.142 134.907 349.142 137.677C349.142 140.447 348.077 142.817 345.946 144.788C343.842 146.759 341.285 147.744 338.276 147.744ZM416.628 174.112H396.333C396.227 172.86 395.787 171.781 395.015 170.876C394.243 169.97 393.244 169.278 392.019 168.798C390.82 168.292 389.489 168.039 388.024 168.039C386.133 168.039 384.508 168.385 383.15 169.078C381.791 169.77 381.126 170.756 381.152 172.034C381.126 172.94 381.512 173.779 382.311 174.551C383.136 175.323 384.721 175.923 387.065 176.349L399.529 178.586C405.815 179.731 410.489 181.662 413.552 184.379C416.641 187.069 418.199 190.678 418.226 195.205C418.199 199.573 416.894 203.368 414.311 206.591C411.754 209.787 408.252 212.264 403.804 214.022C399.383 215.753 394.336 216.619 388.663 216.619C379.288 216.619 371.95 214.701 366.65 210.866C361.377 207.031 358.434 201.97 357.821 195.685H379.714C380.007 197.629 380.966 199.134 382.59 200.199C384.242 201.238 386.319 201.757 388.823 201.757C390.847 201.757 392.511 201.411 393.816 200.718C395.148 200.026 395.827 199.04 395.854 197.762C395.827 196.59 395.241 195.658 394.096 194.966C392.977 194.273 391.22 193.714 388.823 193.288L377.956 191.37C371.697 190.278 367.01 188.201 363.894 185.138C360.778 182.075 359.233 178.133 359.259 173.312C359.233 169.051 360.351 165.442 362.615 162.486C364.906 159.503 368.168 157.239 372.403 155.694C376.664 154.123 381.712 153.337 387.544 153.337C396.413 153.337 403.405 155.175 408.518 158.85C413.658 162.526 416.362 167.613 416.628 174.112Z" fill="#091312"/>
</g>
<defs>
<clipPath id="clip0_24_2">
<rect width="421.5" height="252" fill="white"/>
</clipPath>
</defs>
</svg>
