<svg width="1482" height="677" viewBox="0 0 1482 677" fill="none" xmlns="http://www.w3.org/2000/svg">
<rect width="1481.52" height="677" rx="58.2227" fill="url(#paint0_linear_331_64)"/>
<g clip-path="url(#clip0_331_64)">
<path d="M518.714 341.453L497.983 389H462.266L429.479 296.498H471.731L485.814 346.524L506.32 298.301H531.333L551.501 346.524L565.697 296.498H607.948L575.387 389H539.783L518.714 341.453ZM666.617 389V375.142C665.866 376.569 664.176 378.634 661.547 381.338C658.918 383.967 655.425 386.371 651.069 388.549C646.787 390.652 641.755 391.704 635.971 391.704C626.807 391.704 618.883 389.451 612.198 384.944C605.513 380.437 600.33 374.466 596.649 367.029C593.044 359.593 591.241 351.519 591.241 342.805C591.241 334.092 593.044 326.018 596.649 318.581C600.33 311.145 605.513 305.174 612.198 300.667C618.883 296.085 626.807 293.794 635.971 293.794C641.454 293.794 646.224 294.62 650.28 296.273C654.411 297.925 657.792 299.878 660.42 302.132C663.125 304.385 665.04 306.526 666.167 308.554V296.498H705.826V389H666.617ZM630.338 342.805C630.338 346.11 631.126 349.152 632.704 351.932C634.281 354.636 636.422 356.776 639.126 358.354C641.83 359.931 644.91 360.72 648.365 360.72C651.82 360.72 654.862 359.931 657.491 358.354C660.195 356.776 662.298 354.636 663.801 351.932C665.378 349.152 666.167 346.11 666.167 342.805C666.167 339.5 665.378 336.496 663.801 333.792C662.298 331.013 660.195 328.834 657.491 327.257C654.862 325.605 651.82 324.778 648.365 324.778C644.91 324.778 641.83 325.605 639.126 327.257C636.422 328.834 634.281 331.013 632.704 333.792C631.126 336.496 630.338 339.5 630.338 342.805ZM746.872 413.5H707.437V296.498H747.21V308.554C748.411 306.526 750.44 304.385 753.294 302.132C756.223 299.803 759.904 297.85 764.335 296.273C768.767 294.62 773.725 293.794 779.208 293.794C788.372 293.794 796.108 296.085 802.418 300.667C808.802 305.174 813.647 311.145 816.952 318.581C820.332 326.018 822.022 334.092 822.022 342.805C822.022 351.519 820.22 359.593 816.614 367.029C813.009 374.466 807.901 380.437 801.291 384.944C794.681 389.451 786.794 391.704 777.63 391.704C771.396 391.704 766.101 390.652 761.744 388.549C757.463 386.371 754.083 383.967 751.604 381.338C749.2 378.634 747.623 376.569 746.872 375.142V413.5ZM783.039 342.805C783.039 339.5 782.25 336.496 780.673 333.792C779.17 331.013 777.067 328.834 774.363 327.257C771.659 325.605 768.617 324.778 765.237 324.778C761.707 324.778 758.589 325.605 755.885 327.257C753.181 328.834 751.04 331.013 749.463 333.792C747.961 336.496 747.21 339.5 747.21 342.805C747.21 346.11 747.961 349.152 749.463 351.932C751.04 354.636 753.181 356.776 755.885 358.354C758.589 359.931 761.707 360.72 765.237 360.72C768.617 360.72 771.659 359.931 774.363 358.354C777.067 356.776 779.17 354.636 780.673 351.932C782.25 349.152 783.039 346.11 783.039 342.805ZM820.704 389V296.498H860.476V389H820.704ZM841.097 282.302C835.013 282.302 829.83 280.161 825.549 275.88C821.342 271.598 819.239 266.49 819.239 260.557C819.239 254.623 821.342 249.477 825.549 245.121C829.83 240.764 835.013 238.586 841.097 238.586C845.078 238.586 848.721 239.6 852.026 241.628C855.331 243.581 857.997 246.21 860.026 249.515C862.054 252.82 863.068 256.5 863.068 260.557C863.068 266.49 860.889 271.598 856.533 275.88C852.251 280.161 847.106 282.302 841.097 282.302Z" fill="#25D366"/>
<path d="M884.674 392.704C880.092 392.704 876.149 391.089 872.844 387.859C869.614 384.554 867.999 380.573 867.999 375.916C867.999 371.259 869.614 367.278 872.844 363.973C876.149 360.668 880.092 359.016 884.674 359.016C889.406 359.016 893.387 360.668 896.617 363.973C899.922 367.278 901.575 371.259 901.575 375.916C901.575 380.573 899.922 384.554 896.617 387.859C893.387 391.089 889.406 392.704 884.674 392.704ZM914.783 439.575C907.347 439.575 901.263 438.861 896.531 437.434C891.724 436.082 888.081 434.692 885.602 433.265L897.432 403.746C898.709 404.722 900.024 405.398 901.376 405.774C902.728 406.224 904.117 406.45 905.545 406.45C907.047 406.45 908.436 406.037 909.713 405.21C910.99 404.384 911.967 403.145 912.643 401.492C913.319 399.84 913.657 397.737 913.657 395.183V297.498H953.542V400.704C953.542 407.914 952.19 414.449 949.486 420.308C946.782 426.167 942.575 430.824 936.867 434.279C931.158 437.81 923.797 439.575 914.783 439.575ZM933.825 283.302C927.816 283.302 922.67 281.161 918.389 276.88C914.183 272.598 912.079 267.49 912.079 261.556C912.079 257.575 913.056 253.932 915.009 250.628C916.962 247.323 919.591 244.656 922.896 242.628C926.201 240.6 929.844 239.586 933.825 239.586C937.806 239.586 941.449 240.6 944.754 242.628C948.134 244.581 950.8 247.21 952.753 250.515C954.781 253.82 955.795 257.5 955.795 261.556C955.795 267.49 953.655 272.598 949.373 276.88C945.092 281.161 939.909 283.302 933.825 283.302ZM1001.15 294.794C1007.61 294.794 1013.51 295.32 1018.84 296.371C1024.25 297.423 1028.72 298.587 1032.25 299.864C1035.85 301.066 1038.11 302.005 1039.01 302.681L1026.5 325.891C1025.15 324.914 1022.52 323.638 1018.61 322.06C1014.78 320.408 1010.54 319.581 1005.88 319.581C1002.8 319.581 1000.25 319.957 998.221 320.708C996.268 321.384 995.291 322.586 995.291 324.314C995.291 325.966 996.456 327.356 998.784 328.482C1001.11 329.534 1004.64 330.473 1009.37 331.299C1013.66 332.125 1018.16 333.515 1022.9 335.468C1027.63 337.346 1031.61 340.238 1034.84 344.143C1038.14 347.974 1039.8 353.119 1039.8 359.579C1039.8 366.49 1038.29 372.123 1035.29 376.48C1032.28 380.761 1028.34 384.104 1023.46 386.507C1018.65 388.836 1013.43 390.451 1007.8 391.352C1002.24 392.253 996.906 392.704 991.799 392.704C984.287 392.704 977.79 392.028 972.307 390.676C966.823 389.399 962.429 387.934 959.124 386.282C955.894 384.629 953.679 383.352 952.477 382.451L964.758 356.65C966.711 358.227 969.865 360.03 974.222 362.058C978.654 364.086 983.236 365.1 987.968 365.1C992.174 365.1 995.329 364.649 997.432 363.748C999.61 362.771 1000.7 361.457 1000.7 359.805C1000.7 358.528 1000.17 357.476 999.122 356.65C998.07 355.824 996.531 355.072 994.503 354.396C992.475 353.72 989.921 353.082 986.841 352.481C984.062 351.955 980.982 351.091 977.602 349.89C974.222 348.613 970.992 346.847 967.913 344.594C964.908 342.341 962.392 339.486 960.364 336.031C958.411 332.501 957.434 328.219 957.434 323.187C957.434 316.727 959.537 311.432 963.744 307.3C967.95 303.094 973.358 299.977 979.968 297.949C986.653 295.846 993.714 294.794 1001.15 294.794Z" fill="white"/>
</g>
<defs>
<linearGradient id="paint0_linear_331_64" x1="1436.02" y1="5.12179e-05" x2="23.4639" y2="626.637" gradientUnits="userSpaceOnUse">
<stop stop-color="#117D39"/>
<stop offset="0.432213"/>
<stop offset="1" stop-color="#1C4448"/>
</linearGradient>
<clipPath id="clip0_331_64">
<rect width="700" height="201" fill="white" transform="translate(429 238)"/>
</clipPath>
</defs>
</svg>
