<svg width="288" height="160" viewBox="0 0 288 160" fill="none" xmlns="http://www.w3.org/2000/svg">
<path d="M22.9219 96L1.6875 24H23.4844L33.3281 68.2969H33.8906L45.5625 24H62.7188L74.3906 68.4375H74.9531L84.7969 24H106.594L85.3594 96H66.6563L54.4219 55.7812H53.8594L41.625 96H22.9219ZM123.214 96H102.12L125.886 24H152.604L176.37 96H155.276L139.526 43.8281H138.964L123.214 96ZM119.276 67.5938H158.933V82.2187H119.276V67.5938ZM183.305 96V24H214.383C219.727 24 224.402 25.0547 228.41 27.1641C232.418 29.2734 235.535 32.2383 237.762 36.0586C239.988 39.8789 241.102 44.3437 241.102 49.4531C241.102 54.6094 239.953 59.0742 237.656 62.8477C235.383 66.6211 232.184 69.5273 228.059 71.5664C223.957 73.6055 219.164 74.625 213.68 74.625H195.117V59.4375H209.742C212.039 59.4375 213.996 59.0391 215.613 58.2422C217.254 57.4219 218.508 56.2617 219.375 54.7617C220.266 53.2617 220.711 51.4922 220.711 49.4531C220.711 47.3906 220.266 45.6328 219.375 44.1797C218.508 42.7031 217.254 41.5781 215.613 40.8047C213.996 40.0078 212.039 39.6094 209.742 39.6094H202.852V96H183.305ZM267.82 24V96H248.273V24H267.82Z" fill="#25D366"/>
<path d="M202.719 144.852C200.659 144.852 198.892 144.133 197.419 142.695C195.963 141.239 195.244 139.472 195.261 137.395C195.244 135.371 195.963 133.64 197.419 132.201C198.892 130.763 200.659 130.044 202.719 130.044C204.672 130.044 206.394 130.763 207.886 132.201C209.395 133.64 210.158 135.371 210.176 137.395C210.158 138.78 209.794 140.04 209.084 141.177C208.392 142.295 207.486 143.192 206.368 143.867C205.249 144.524 204.033 144.852 202.719 144.852ZM218.166 103.091H232.868V145.385C232.868 148.972 232.113 151.777 230.604 153.801C229.113 155.825 227.017 157.255 224.319 158.089C221.62 158.924 218.468 159.341 214.864 159.341C214.331 159.341 213.843 159.332 213.399 159.314C212.937 159.297 212.431 159.27 211.881 159.234V148.368C212.236 148.403 212.547 148.43 212.813 148.448C213.061 148.466 213.319 148.474 213.585 148.474C215.343 148.474 216.542 148.199 217.181 147.649C217.838 147.116 218.166 146.255 218.166 145.065V103.091ZM225.517 98.8295C223.528 98.8295 221.824 98.1726 220.403 96.8587C218.983 95.5447 218.273 93.9645 218.273 92.1179C218.273 90.2713 218.983 88.6911 220.403 87.3771C221.824 86.0632 223.528 85.4062 225.517 85.4062C227.523 85.4062 229.228 86.0632 230.631 87.3771C232.051 88.6911 232.761 90.2713 232.761 92.1179C232.761 93.9645 232.051 95.5447 230.631 96.8587C229.228 98.1726 227.523 98.8295 225.517 98.8295ZM277.752 116.408H264.222C264.151 115.573 263.858 114.854 263.343 114.25C262.828 113.647 262.163 113.185 261.346 112.865C260.547 112.528 259.659 112.359 258.682 112.359C257.422 112.359 256.339 112.59 255.433 113.052C254.528 113.513 254.084 114.17 254.101 115.023C254.084 115.626 254.341 116.186 254.874 116.701C255.424 117.216 256.481 117.615 258.043 117.899L266.353 119.391C270.543 120.154 273.659 121.441 275.701 123.252C277.761 125.046 278.8 127.452 278.817 130.47C278.8 133.382 277.93 135.912 276.207 138.061C274.503 140.191 272.168 141.843 269.203 143.015C266.255 144.169 262.891 144.746 259.109 144.746C252.859 144.746 247.967 143.467 244.434 140.911C240.918 138.354 238.956 134.98 238.547 130.79H253.143C253.338 132.086 253.977 133.089 255.06 133.799C256.161 134.492 257.546 134.838 259.215 134.838C260.565 134.838 261.674 134.607 262.544 134.146C263.432 133.684 263.885 133.027 263.903 132.175C263.885 131.393 263.494 130.772 262.731 130.31C261.985 129.849 260.813 129.476 259.215 129.192L251.971 127.913C247.798 127.185 244.673 125.8 242.596 123.759C240.518 121.717 239.489 119.089 239.506 115.875C239.489 113.034 240.234 110.628 241.744 108.657C243.271 106.669 245.446 105.159 248.269 104.13C251.11 103.082 254.474 102.558 258.363 102.558C264.275 102.558 268.936 103.783 272.345 106.234C275.772 108.684 277.574 112.075 277.752 116.408Z" fill="white"/>
</svg>
