<svg width="333" height="220" viewBox="0 0 333 220" fill="none" xmlns="http://www.w3.org/2000/svg">
<g clip-path="url(#clip0_1_4)">
<path d="M41.9219 121L20.6875 49H42.4844L52.3281 93.2969H52.8906L64.5625 49H81.7188L93.3906 93.4375H93.9531L103.797 49H125.594L104.359 121H85.6563L73.4219 80.7812H72.8594L60.625 121H41.9219ZM142.214 121H121.12L144.886 49H171.604L195.37 121H174.276L158.526 68.8281H157.964L142.214 121ZM138.276 92.5938H177.933V107.219H138.276V92.5938ZM202.305 121V49H233.383C238.727 49 243.402 50.0547 247.41 52.1641C251.418 54.2734 254.535 57.2383 256.762 61.0586C258.988 64.8789 260.102 69.3437 260.102 74.4531C260.102 79.6094 258.953 84.0742 256.656 87.8477C254.383 91.6211 251.184 94.5273 247.059 96.5664C242.957 98.6055 238.164 99.625 232.68 99.625H214.117V84.4375H228.742C231.039 84.4375 232.996 84.0391 234.613 83.2422C236.254 82.4219 237.508 81.2617 238.375 79.7617C239.266 78.2617 239.711 76.4922 239.711 74.4531C239.711 72.3906 239.266 70.6328 238.375 69.1797C237.508 67.7031 236.254 66.5781 234.613 65.8047C232.996 65.0078 231.039 64.6094 228.742 64.6094H221.852V121H202.305ZM286.82 49V121H267.273V49H286.82Z" fill="#25D366"/>
<path d="M221.719 169.852C219.659 169.852 217.892 169.133 216.419 167.695C214.963 166.239 214.244 164.472 214.261 162.395C214.244 160.371 214.963 158.64 216.419 157.201C217.892 155.763 219.659 155.044 221.719 155.044C223.672 155.044 225.394 155.763 226.886 157.201C228.395 158.64 229.158 160.371 229.176 162.395C229.158 163.78 228.794 165.04 228.084 166.177C227.392 167.295 226.486 168.192 225.368 168.867C224.249 169.524 223.033 169.852 221.719 169.852ZM237.166 128.091H251.868V170.385C251.868 173.972 251.113 176.777 249.604 178.801C248.113 180.825 246.017 182.255 243.319 183.089C240.62 183.924 237.468 184.341 233.864 184.341C233.331 184.341 232.843 184.332 232.399 184.314C231.937 184.297 231.431 184.27 230.881 184.234V173.368C231.236 173.403 231.547 173.43 231.813 173.448C232.061 173.466 232.319 173.474 232.585 173.474C234.343 173.474 235.542 173.199 236.181 172.649C236.838 172.116 237.166 171.255 237.166 170.065V128.091ZM244.517 123.83C242.528 123.83 240.824 123.173 239.403 121.859C237.983 120.545 237.273 118.964 237.273 117.118C237.273 115.271 237.983 113.691 239.403 112.377C240.824 111.063 242.528 110.406 244.517 110.406C246.523 110.406 248.228 111.063 249.631 112.377C251.051 113.691 251.761 115.271 251.761 117.118C251.761 118.964 251.051 120.545 249.631 121.859C248.228 123.173 246.523 123.83 244.517 123.83ZM296.752 141.408H283.222C283.151 140.573 282.858 139.854 282.343 139.25C281.828 138.647 281.163 138.185 280.346 137.865C279.547 137.528 278.659 137.359 277.682 137.359C276.422 137.359 275.339 137.59 274.433 138.052C273.528 138.513 273.084 139.17 273.101 140.023C273.084 140.626 273.341 141.186 273.874 141.701C274.424 142.216 275.481 142.615 277.043 142.899L285.353 144.391C289.543 145.154 292.659 146.441 294.701 148.252C296.761 150.046 297.8 152.452 297.817 155.47C297.8 158.382 296.93 160.912 295.207 163.061C293.503 165.191 291.168 166.843 288.203 168.015C285.255 169.169 281.891 169.746 278.109 169.746C271.859 169.746 266.967 168.467 263.434 165.911C259.918 163.354 257.956 159.98 257.547 155.79H272.143C272.338 157.086 272.977 158.089 274.06 158.799C275.161 159.492 276.546 159.838 278.215 159.838C279.565 159.838 280.674 159.607 281.544 159.146C282.432 158.684 282.885 158.027 282.903 157.175C282.885 156.393 282.494 155.772 281.731 155.31C280.985 154.849 279.813 154.476 278.215 154.192L270.971 152.913C266.798 152.185 263.673 150.8 261.596 148.759C259.518 146.717 258.489 144.089 258.506 140.875C258.489 138.034 259.234 135.628 260.744 133.657C262.271 131.669 264.446 130.159 267.269 129.13C270.11 128.082 273.474 127.558 277.363 127.558C283.275 127.558 287.936 128.783 291.345 131.234C294.772 133.684 296.574 137.075 296.752 141.408Z" fill="#091312"/>
</g>
<defs>
<clipPath id="clip0_1_4">
<rect width="333" height="220" fill="white"/>
</clipPath>
</defs>
</svg>
